<svg width="21" height="20" viewBox="0 0 21 20" fill="none" xmlns="http://www.w3.org/2000/svg">
<path d="M10.5 0C9.18678 0 7.88642 0.258658 6.67317 0.761205C5.45991 1.26375 4.35752 2.00035 3.42894 2.92893C1.55357 4.8043 0.500003 7.34784 0.500003 10C0.491261 12.3091 1.2908 14.5485 2.76 16.33L0.760003 18.33C0.621246 18.4706 0.527249 18.6492 0.489875 18.8432C0.452501 19.0372 0.473424 19.2379 0.550003 19.42C0.633061 19.5999 0.767707 19.7511 0.93685 19.8544C1.10599 19.9577 1.302 20.0083 1.5 20H10.5C13.1522 20 15.6957 18.9464 17.5711 17.0711C19.4464 15.1957 20.5 12.6522 20.5 10C20.5 7.34784 19.4464 4.8043 17.5711 2.92893C15.6957 1.05357 13.1522 0 10.5 0ZM10.5 18H3.91L4.84 17.07C5.02625 16.8826 5.1308 16.6292 5.1308 16.365C5.1308 16.1008 5.02625 15.8474 4.84 15.66C3.53059 14.352 2.71518 12.6305 2.53269 10.7888C2.35021 8.94705 2.81195 7.09901 3.83923 5.55952C4.86652 4.02004 6.39579 2.88436 8.16652 2.34597C9.93724 1.80759 11.8399 1.8998 13.5502 2.60691C15.2606 3.31402 16.6729 4.59227 17.5464 6.22389C18.42 7.85551 18.7009 9.73954 18.3411 11.555C17.9814 13.3705 17.0033 15.005 15.5735 16.1802C14.1438 17.3554 12.3508 17.9985 10.5 18ZM15.5 9H5.5C5.23479 9 4.98043 9.10536 4.7929 9.29289C4.60536 9.48043 4.5 9.73478 4.5 10C4.5 10.2652 4.60536 10.5196 4.7929 10.7071C4.98043 10.8946 5.23479 11 5.5 11H15.5C15.7652 11 16.0196 10.8946 16.2071 10.7071C16.3946 10.5196 16.5 10.2652 16.5 10C16.5 9.73478 16.3946 9.48043 16.2071 9.29289C16.0196 9.10536 15.7652 9 15.5 9ZM13.5 13H7.5C7.23479 13 6.98043 13.1054 6.7929 13.2929C6.60536 13.4804 6.5 13.7348 6.5 14C6.5 14.2652 6.60536 14.5196 6.7929 14.7071C6.98043 14.8946 7.23479 15 7.5 15H13.5C13.7652 15 14.0196 14.8946 14.2071 14.7071C14.3946 14.5196 14.5 14.2652 14.5 14C14.5 13.7348 14.3946 13.4804 14.2071 13.2929C14.0196 13.1054 13.7652 13 13.5 13ZM7.5 7H13.5C13.7652 7 14.0196 6.89464 14.2071 6.70711C14.3946 6.51957 14.5 6.26522 14.5 6C14.5 5.73478 14.3946 5.48043 14.2071 5.29289C14.0196 5.10536 13.7652 5 13.5 5H7.5C7.23479 5 6.98043 5.10536 6.7929 5.29289C6.60536 5.48043 6.5 5.73478 6.5 6C6.5 6.26522 6.60536 6.51957 6.7929 6.70711C6.98043 6.89464 7.23479 7 7.5 7Z" fill="#616161"/>
</svg>
