<svg width="17" height="20" viewBox="0 0 17 20" fill="none" xmlns="http://www.w3.org/2000/svg">
<path d="M14.5 0H4.5C3.43913 0 2.42172 0.421427 1.67157 1.17157C0.921427 1.92172 0.5 2.93913 0.5 4V16C0.5 17.0609 0.921427 18.0783 1.67157 18.8284C2.42172 19.5786 3.43913 20 4.5 20H14.5C15.0304 20 15.5391 19.7893 15.9142 19.4142C16.2893 19.0391 16.5 18.5304 16.5 18V2C16.5 1.46957 16.2893 0.960859 15.9142 0.585786C15.5391 0.210714 15.0304 0 14.5 0ZM2.5 4C2.5 3.46957 2.71071 2.96086 3.08579 2.58579C3.46086 2.21071 3.96957 2 4.5 2H14.5V12H4.5C3.79504 12.003 3.10399 12.1964 2.5 12.56V4ZM4.5 18C3.96957 18 3.46086 17.7893 3.08579 17.4142C2.71071 17.0391 2.5 16.5304 2.5 16C2.5 15.4696 2.71071 14.9609 3.08579 14.5858C3.46086 14.2107 3.96957 14 4.5 14H14.5V18H4.5ZM6.5 6H10.5C10.7652 6 11.0196 5.89464 11.2071 5.70711C11.3946 5.51957 11.5 5.26522 11.5 5C11.5 4.73478 11.3946 4.48043 11.2071 4.29289C11.0196 4.10536 10.7652 4 10.5 4H6.5C6.23478 4 5.98043 4.10536 5.79289 4.29289C5.60536 4.48043 5.5 4.73478 5.5 5C5.5 5.26522 5.60536 5.51957 5.79289 5.70711C5.98043 5.89464 6.23478 6 6.5 6Z" fill="#FEBB1B"/>
</svg>
