<svg width="201" height="200" viewBox="0 0 201 200" fill="none" xmlns="http://www.w3.org/2000/svg">
<circle cx="100.5" cy="100" r="100" fill="#35383F"/>
<path d="M87.9578 181C127.191 181 158.995 179.019 158.995 176.575C158.995 174.131 127.191 172.149 87.9578 172.149C48.7251 172.149 16.9207 174.131 16.9207 176.575C16.9207 179.019 48.7251 181 87.9578 181Z" fill="#FEBB1B"/>
<path opacity="0.8" d="M87.9578 181C127.191 181 158.995 179.019 158.995 176.575C158.995 174.131 127.191 172.149 87.9578 172.149C48.7251 172.149 16.9207 174.131 16.9207 176.575C16.9207 179.019 48.7251 181 87.9578 181Z" fill="white"/>
<path d="M141.339 8.29199H69.9113C64.98 8.29199 60.9823 12.2897 60.9823 17.221V168.018C60.9823 172.949 64.98 176.947 69.9113 176.947H141.339C146.271 176.947 150.268 172.949 150.268 168.018V17.221C150.268 12.2897 146.271 8.29199 141.339 8.29199Z" fill="#263238"/>
<path d="M146.298 26.8119H64.9482V158.427H146.298V26.8119Z" fill="white" stroke="#263238" stroke-width="0.271418" stroke-miterlimit="10"/>
<path d="M118.094 80.1067C124.98 73.2206 124.98 62.056 118.094 55.1699C111.207 48.2839 100.043 48.2839 93.1568 55.1699C86.2708 62.056 86.2707 73.2206 93.1568 80.1067C100.043 86.9927 111.207 86.9927 118.094 80.1067Z" fill="#FEBB1B"/>
<path d="M128.775 150.15H82.48C82.3758 150.151 82.2726 150.131 82.1761 150.092C82.0797 150.052 81.992 149.994 81.9181 149.921C81.8443 149.847 81.7856 149.76 81.7456 149.664C81.7056 149.567 81.685 149.464 81.685 149.36C81.6844 149.255 81.7045 149.152 81.7443 149.055C81.784 148.958 81.8426 148.87 81.9165 148.796C81.9905 148.723 82.0783 148.664 82.1751 148.624C82.2718 148.584 82.3755 148.564 82.48 148.565H128.775C128.879 148.565 128.982 148.586 129.079 148.626C129.175 148.666 129.262 148.724 129.336 148.798C129.409 148.872 129.467 148.96 129.507 149.056C129.546 149.153 129.566 149.256 129.565 149.36C129.565 149.57 129.482 149.771 129.334 149.919C129.186 150.067 128.985 150.15 128.775 150.15Z" fill="#FEBB1B"/>
<path d="M130.282 95.1836H80.9681C79.9504 95.1836 79.1253 96.0086 79.1253 97.0264V102.84C79.1253 103.857 79.9504 104.682 80.9681 104.682H130.282C131.3 104.682 132.125 103.857 132.125 102.84V97.0264C132.125 96.0086 131.3 95.1836 130.282 95.1836Z" fill="#FEBB1B"/>
<path d="M130.282 112.95H80.9681C79.9504 112.95 79.1253 113.775 79.1253 114.793V120.606C79.1253 121.624 79.9504 122.449 80.9681 122.449H130.282C131.3 122.449 132.125 121.624 132.125 120.606V114.793C132.125 113.775 131.3 112.95 130.282 112.95Z" fill="#FEBB1B"/>
<path d="M114.405 76.4341L109.217 73.447V70.9792C109.968 70.0703 110.512 69.0086 110.811 67.8681C110.99 67.9315 111.178 67.9641 111.367 67.9646C112.011 67.9646 112.42 65.9701 112.489 64.5455C113.238 62.9601 112.218 62.0318 112.218 62.0318C112.218 62.0318 112.64 61.609 112.921 59.9133C113.201 58.2175 111.933 58.9252 110.945 57.372C109.957 55.8187 109.249 54.1275 106.004 54.1275C105.11 54.0981 104.228 54.3384 103.473 54.817C102.717 55.2956 102.123 55.9905 101.767 56.8113C100.96 56.8142 100.155 56.9082 99.3685 57.0916C98.3759 57.372 98.0956 60.621 98.9411 61.8939C99.3197 62.5896 99.5216 63.3675 99.5294 64.1595C99.3042 63.8838 99.0698 63.8102 98.9411 64.4352C98.6608 65.846 99.7913 67.8221 99.7913 67.8221L100.375 67.6567C100.669 68.8756 101.236 70.0118 102.034 70.9792V73.447L96.8456 76.4341C96.2397 76.7839 95.7364 77.2869 95.3864 77.8927C95.0363 78.4985 94.8517 79.1856 94.8511 79.8853V81.5948C97.9369 83.9786 101.726 85.2717 105.625 85.2717C109.525 85.2717 113.314 83.9786 116.399 81.5948V79.8853C116.4 79.1855 116.216 78.4979 115.865 77.892C115.515 77.286 115.012 76.7832 114.405 76.4341Z" fill="#263238"/>
<path d="M85.8393 120.087C85.7204 120.085 85.6067 120.037 85.5222 119.953C85.477 119.913 85.4409 119.863 85.4164 119.808C85.3918 119.752 85.3793 119.692 85.3798 119.632C85.3812 119.549 85.405 119.468 85.4487 119.397L86.2759 118.074L84.6629 118.124C84.6021 118.128 84.5412 118.119 84.4842 118.098C84.4272 118.076 84.3753 118.043 84.332 118C84.2571 117.916 84.2157 117.807 84.2157 117.695C84.2157 117.582 84.2571 117.473 84.332 117.389C84.3743 117.345 84.4259 117.31 84.4831 117.288C84.5403 117.266 84.6017 117.256 84.6629 117.26L86.2529 117.32L85.4349 116.001C85.3904 115.929 85.3666 115.847 85.366 115.762C85.3655 115.702 85.378 115.642 85.4026 115.586C85.4272 115.531 85.4632 115.481 85.5085 115.441C85.5929 115.357 85.7066 115.309 85.8255 115.307C85.9038 115.308 85.9804 115.331 86.0463 115.373C86.1122 115.415 86.1647 115.475 86.1978 115.546L86.9836 116.966L87.7602 115.555C87.7971 115.48 87.8538 115.416 87.9243 115.371C87.9948 115.326 88.0763 115.3 88.1601 115.298C88.2181 115.298 88.2755 115.311 88.3285 115.335C88.3815 115.358 88.429 115.393 88.468 115.436C88.5523 115.523 88.5986 115.641 88.5966 115.762C88.5964 115.841 88.5758 115.919 88.5369 115.987L87.7051 117.32L89.3181 117.26C89.3793 117.256 89.4407 117.266 89.4979 117.288C89.5551 117.31 89.6067 117.345 89.649 117.389C89.7273 117.47 89.7703 117.579 89.7685 117.692C89.7682 117.806 89.7256 117.916 89.649 118C89.6057 118.043 89.5539 118.076 89.4968 118.098C89.4398 118.119 89.3789 118.128 89.3181 118.124L87.6959 118.074L88.5047 119.383C88.55 119.457 88.5739 119.541 88.5736 119.627C88.5736 119.749 88.5252 119.866 88.439 119.952C88.3529 120.038 88.236 120.087 88.1141 120.087C88.0353 120.086 87.9585 120.062 87.8932 120.017C87.8279 119.973 87.7769 119.911 87.7465 119.838L86.979 118.46L86.2162 119.838C86.1823 119.911 86.1292 119.972 86.0627 120.016C85.9962 120.059 85.9189 120.084 85.8393 120.087Z" fill="#263238"/>
<path d="M93.2932 120.087C93.1742 120.085 93.0606 120.037 92.9761 119.953C92.9309 119.913 92.8948 119.863 92.8703 119.808C92.8457 119.752 92.8332 119.692 92.8337 119.632C92.8351 119.549 92.8589 119.468 92.9026 119.397L93.7298 118.074L92.1214 118.124C92.06 118.127 91.9987 118.118 91.941 118.096C91.8834 118.075 91.8307 118.042 91.7859 118C91.7249 117.937 91.6842 117.857 91.6692 117.771C91.6542 117.685 91.6656 117.596 91.7017 117.516C91.7379 117.436 91.7973 117.369 91.8722 117.324C91.947 117.278 92.0338 117.256 92.1214 117.26L93.7068 117.32L92.8888 116.001C92.8443 115.929 92.8204 115.847 92.8199 115.762C92.8194 115.702 92.8319 115.642 92.8565 115.586C92.881 115.531 92.9171 115.481 92.9623 115.441C93.0468 115.357 93.1605 115.309 93.2794 115.307C93.3577 115.308 93.4343 115.331 93.5002 115.373C93.5661 115.415 93.6186 115.475 93.6517 115.546L94.4375 116.966L95.2141 115.555C95.251 115.48 95.3077 115.416 95.3782 115.371C95.4486 115.326 95.5302 115.3 95.6139 115.298C95.6721 115.298 95.7297 115.31 95.7828 115.334C95.8359 115.358 95.8833 115.392 95.9218 115.436C95.9644 115.479 95.9981 115.53 96.021 115.586C96.0439 115.642 96.0554 115.702 96.0551 115.762C96.0535 115.842 96.0313 115.919 95.9908 115.987L95.159 117.32L96.7766 117.27C96.8371 117.265 96.8978 117.275 96.9542 117.297C97.0107 117.319 97.0614 117.354 97.1029 117.398C97.1812 117.48 97.2242 117.589 97.2224 117.702C97.2221 117.815 97.1795 117.925 97.1029 118.009C97.0605 118.052 97.0094 118.085 96.9531 118.107C96.8969 118.128 96.8367 118.137 96.7766 118.134L95.1498 118.083L95.9586 119.393C96.0039 119.466 96.0278 119.55 96.0275 119.636C96.0275 119.758 95.9791 119.875 95.8929 119.961C95.8067 120.047 95.6899 120.096 95.568 120.096C95.4892 120.095 95.4124 120.071 95.3471 120.027C95.2818 119.983 95.2308 119.92 95.2003 119.848L94.4329 118.469L93.67 119.848C93.6349 119.918 93.5813 119.977 93.5149 120.02C93.4485 120.062 93.3718 120.085 93.2932 120.087Z" fill="#263238"/>
<path d="M100.752 120.087C100.631 120.086 100.516 120.038 100.43 119.953C100.385 119.913 100.349 119.863 100.324 119.808C100.3 119.752 100.287 119.692 100.288 119.632C100.289 119.549 100.313 119.468 100.356 119.397L101.184 118.074L99.5753 118.124C99.4886 118.128 99.403 118.105 99.3291 118.06C99.2553 118.015 99.1966 117.948 99.1607 117.869C99.1247 117.79 99.113 117.703 99.1271 117.617C99.1412 117.532 99.1804 117.452 99.2398 117.389C99.2832 117.345 99.3356 117.31 99.3935 117.288C99.4514 117.266 99.5134 117.257 99.5753 117.26L101.161 117.32L100.343 116.001C100.298 115.929 100.274 115.847 100.274 115.762C100.275 115.702 100.289 115.642 100.313 115.587C100.337 115.532 100.373 115.482 100.416 115.441C100.502 115.356 100.617 115.308 100.738 115.307C100.815 115.309 100.891 115.332 100.956 115.374C101.021 115.416 101.073 115.476 101.106 115.546L101.891 116.966L102.668 115.555C102.705 115.48 102.762 115.416 102.832 115.371C102.903 115.326 102.984 115.3 103.068 115.298C103.126 115.298 103.184 115.31 103.237 115.334C103.29 115.358 103.337 115.392 103.376 115.436C103.418 115.479 103.452 115.53 103.475 115.586C103.498 115.642 103.509 115.702 103.509 115.762C103.507 115.842 103.485 115.919 103.445 115.987L102.613 117.32L104.23 117.26C104.29 117.254 104.35 117.261 104.407 117.281C104.463 117.3 104.515 117.331 104.559 117.372C104.602 117.413 104.636 117.463 104.659 117.518C104.682 117.573 104.692 117.633 104.69 117.692C104.691 117.806 104.65 117.915 104.575 118C104.532 118.043 104.48 118.076 104.423 118.098C104.366 118.119 104.305 118.128 104.244 118.124L102.622 118.074L103.426 119.384C103.472 119.457 103.495 119.541 103.495 119.627C103.494 119.687 103.48 119.747 103.456 119.802C103.432 119.857 103.396 119.907 103.353 119.949C103.313 119.992 103.264 120.026 103.211 120.05C103.157 120.074 103.099 120.086 103.04 120.087C102.962 120.085 102.886 120.061 102.822 120.017C102.757 119.973 102.707 119.911 102.677 119.838L101.905 118.46L101.142 119.838C101.108 119.913 101.053 119.976 100.984 120.02C100.914 120.064 100.834 120.087 100.752 120.087Z" fill="#263238"/>
<path d="M108.206 120.087C108.085 120.086 107.97 120.038 107.884 119.953C107.797 119.868 107.748 119.753 107.746 119.632C107.745 119.549 107.767 119.468 107.81 119.397L108.638 118.074L107.029 118.124C106.968 118.127 106.907 118.118 106.849 118.096C106.791 118.075 106.739 118.042 106.694 118C106.619 117.916 106.577 117.807 106.577 117.695C106.577 117.582 106.619 117.473 106.694 117.389C106.738 117.346 106.791 117.313 106.848 117.291C106.906 117.268 106.968 117.258 107.029 117.26L108.619 117.32L107.806 116.001C107.761 115.929 107.737 115.847 107.737 115.762C107.738 115.702 107.752 115.642 107.776 115.587C107.801 115.532 107.836 115.482 107.879 115.441C107.965 115.356 108.08 115.308 108.201 115.307C108.279 115.308 108.356 115.331 108.422 115.373C108.488 115.415 108.54 115.475 108.573 115.546L109.355 116.966L110.131 115.555C110.168 115.48 110.225 115.416 110.295 115.371C110.366 115.326 110.447 115.3 110.531 115.298C110.589 115.298 110.647 115.31 110.7 115.334C110.753 115.358 110.8 115.392 110.839 115.436C110.881 115.479 110.915 115.53 110.938 115.586C110.961 115.642 110.972 115.702 110.972 115.762C110.971 115.842 110.948 115.919 110.908 115.987L110.076 117.32L111.694 117.26C111.753 117.254 111.813 117.261 111.87 117.281C111.926 117.3 111.978 117.331 112.022 117.372C112.065 117.413 112.1 117.463 112.122 117.518C112.145 117.573 112.155 117.633 112.153 117.692C112.154 117.806 112.113 117.915 112.038 118C111.995 118.043 111.943 118.076 111.886 118.098C111.829 118.119 111.768 118.128 111.707 118.124L110.085 118.074L110.889 119.384C110.935 119.457 110.959 119.541 110.958 119.627C110.959 119.688 110.946 119.748 110.922 119.803C110.897 119.859 110.861 119.908 110.816 119.949C110.776 119.992 110.728 120.026 110.674 120.05C110.62 120.074 110.562 120.086 110.503 120.087C110.425 120.085 110.349 120.061 110.285 120.017C110.22 119.973 110.17 119.911 110.14 119.838L109.368 118.46L108.605 119.838C108.57 119.914 108.514 119.978 108.443 120.023C108.372 120.067 108.289 120.089 108.206 120.087Z" fill="#263238"/>
<path d="M115.659 120.087C115.539 120.086 115.423 120.038 115.338 119.953C115.267 119.881 115.221 119.788 115.209 119.687C115.196 119.586 115.217 119.485 115.269 119.397L116.091 118.074L114.483 118.124C114.422 118.127 114.36 118.118 114.303 118.096C114.245 118.075 114.192 118.042 114.148 118C114.073 117.916 114.031 117.807 114.031 117.695C114.031 117.582 114.073 117.473 114.148 117.389C114.192 117.346 114.245 117.313 114.302 117.291C114.36 117.268 114.421 117.258 114.483 117.26L116.073 117.32L115.255 116.001C115.211 115.929 115.187 115.847 115.186 115.762C115.188 115.641 115.237 115.525 115.324 115.441C115.41 115.356 115.525 115.308 115.646 115.307C115.724 115.308 115.801 115.331 115.866 115.373C115.932 115.415 115.985 115.475 116.018 115.546L116.799 116.966L117.576 115.555C117.613 115.48 117.669 115.416 117.74 115.371C117.81 115.326 117.892 115.3 117.976 115.298C118.034 115.298 118.093 115.31 118.147 115.334C118.2 115.357 118.249 115.392 118.288 115.436C118.372 115.523 118.419 115.641 118.417 115.762C118.415 115.842 118.393 115.919 118.352 115.987L117.521 117.32L119.138 117.26C119.198 117.254 119.258 117.261 119.314 117.281C119.371 117.3 119.423 117.331 119.466 117.372C119.51 117.413 119.544 117.463 119.567 117.518C119.59 117.573 119.6 117.633 119.598 117.692C119.599 117.806 119.558 117.915 119.483 118C119.44 118.043 119.388 118.076 119.331 118.098C119.274 118.119 119.213 118.128 119.152 118.124L117.53 118.074L118.334 119.384C118.379 119.457 118.403 119.541 118.403 119.627C118.403 119.688 118.391 119.748 118.366 119.803C118.342 119.859 118.306 119.908 118.261 119.949C118.221 119.992 118.172 120.026 118.118 120.05C118.065 120.074 118.007 120.086 117.948 120.087C117.87 120.085 117.794 120.061 117.729 120.017C117.665 119.973 117.615 119.911 117.585 119.838L116.813 118.46L116.05 119.838C116.016 119.913 115.961 119.976 115.891 120.02C115.822 120.064 115.742 120.087 115.659 120.087Z" fill="#263238"/>
<path d="M123.113 120.087C122.994 120.085 122.881 120.037 122.796 119.953C122.751 119.913 122.715 119.863 122.69 119.808C122.666 119.752 122.653 119.692 122.654 119.632C122.655 119.549 122.679 119.468 122.723 119.397L123.545 118.074L121.937 118.124C121.878 118.129 121.818 118.121 121.762 118.101C121.706 118.081 121.655 118.05 121.612 118.01C121.569 117.969 121.535 117.92 121.511 117.865C121.488 117.811 121.477 117.752 121.477 117.692C121.477 117.636 121.488 117.58 121.509 117.528C121.531 117.476 121.562 117.429 121.601 117.389C121.644 117.345 121.695 117.31 121.753 117.288C121.81 117.266 121.871 117.256 121.932 117.26L123.522 117.32L122.704 116.001C122.66 115.929 122.636 115.847 122.635 115.762C122.637 115.641 122.687 115.525 122.773 115.441C122.859 115.356 122.974 115.308 123.095 115.307C123.173 115.308 123.25 115.331 123.316 115.373C123.382 115.415 123.434 115.475 123.467 115.546L124.249 116.966L125.03 115.555C125.066 115.481 125.122 115.418 125.192 115.372C125.261 115.327 125.342 115.301 125.425 115.298C125.484 115.298 125.542 115.31 125.596 115.334C125.65 115.357 125.698 115.392 125.737 115.436C125.822 115.523 125.868 115.641 125.866 115.762C125.866 115.841 125.845 115.919 125.806 115.987L124.975 117.32L126.588 117.26C126.649 117.256 126.71 117.266 126.767 117.288C126.825 117.31 126.876 117.345 126.918 117.389C126.997 117.47 127.04 117.579 127.038 117.692C127.038 117.806 126.995 117.916 126.918 118C126.875 118.043 126.823 118.076 126.766 118.098C126.709 118.119 126.648 118.128 126.588 118.124L124.965 118.074L125.77 119.384C125.815 119.457 125.839 119.541 125.839 119.627C125.837 119.748 125.787 119.864 125.701 119.949C125.617 120.034 125.503 120.084 125.384 120.087C125.305 120.085 125.229 120.061 125.165 120.017C125.1 119.973 125.05 119.911 125.021 119.838L124.249 118.46L123.486 119.838C123.453 119.91 123.4 119.971 123.335 120.015C123.269 120.059 123.192 120.084 123.113 120.087Z" fill="#263238"/>
<g style="mix-blend-mode:multiply">
<path d="M146.298 26.9866H64.9482V32.083H146.298V26.9866Z" fill="#FEBB1B"/>
</g>
<path d="M114.469 17.598H96.7766C96.4573 17.598 96.151 17.4711 95.9252 17.2453C95.6994 17.0195 95.5726 16.7133 95.5726 16.394C95.5726 16.0746 95.6994 15.7684 95.9252 15.5426C96.151 15.3168 96.4573 15.1899 96.7766 15.1899H114.469C114.789 15.1899 115.095 15.3168 115.321 15.5426C115.546 15.7684 115.673 16.0746 115.673 16.394C115.673 16.7133 115.546 17.0195 115.321 17.2453C115.095 17.4711 114.789 17.598 114.469 17.598Z" fill="#FEBB1B" stroke="#263238" stroke-width="0.271418" stroke-linecap="round" stroke-linejoin="round"/>
<path d="M110.448 165.862C110.449 164.908 110.167 163.974 109.637 163.18C109.107 162.386 108.354 161.766 107.472 161.401C106.59 161.035 105.619 160.939 104.683 161.125C103.746 161.311 102.886 161.771 102.211 162.446C101.536 163.121 101.076 163.981 100.89 164.918C100.704 165.854 100.8 166.825 101.166 167.706C101.532 168.588 102.151 169.342 102.945 169.872C103.739 170.402 104.673 170.684 105.628 170.683C106.906 170.682 108.131 170.174 109.035 169.27C109.939 168.366 110.447 167.14 110.448 165.862Z" fill="#FEBB1B"/>
<path d="M108.072 163.418H103.183V168.307H108.072V163.418Z" fill="#FEBB1B" stroke="#263238" stroke-width="0.271418" stroke-linecap="round" stroke-linejoin="round"/>
<path d="M163.871 110.376C163.871 110.376 157.465 94.0992 163.168 92.1645C169.105 90.1471 168.843 100.896 168.613 106.135C168.131 117.329 166.895 119.411 165.971 116.677L163.871 110.376ZM161.945 123.074C163.705 125.372 164.202 122.991 161.026 112.242C159.537 107.187 156.302 96.9622 151.339 100.799C146.573 104.476 157.915 117.803 157.915 117.803L161.945 123.074ZM158.545 132.403C160.222 133.892 160.254 132.012 156.27 124.25C154.4 120.615 150.443 113.258 147.203 116.897C144.092 120.408 154.694 128.942 154.694 128.942L158.545 132.403ZM154.868 143.496C156.546 144.99 156.578 143.106 152.594 135.348C150.723 131.713 146.766 124.351 143.527 127.996C140.434 131.516 151.003 140.05 151.003 140.05L154.868 143.496ZM165.484 120.914C162.8 121.962 164.932 123.101 176.141 123.069C181.398 123.069 192.133 122.83 189.845 116.989C187.653 111.378 171.688 118.524 171.688 118.524L165.484 120.914ZM162.428 128.377C159.588 128.869 161.454 130.413 172.446 132.609C177.598 133.643 188.163 135.551 187.083 129.393C186.049 123.455 168.981 127.288 168.981 127.288L162.428 128.377ZM159.009 137.49C156.592 137.839 158.136 139.186 167.377 141.3C171.711 142.292 180.603 144.153 179.831 138.901C179.096 133.846 164.574 136.704 164.574 136.704L159.009 137.49ZM156.412 145.932C154.046 146.534 155.723 147.71 165.144 148.832C169.555 149.355 178.595 150.265 177.276 145.123C176.003 140.187 161.867 144.558 161.867 144.558L156.412 145.932ZM170.263 111.755C168.885 114.843 171.748 114.375 181.481 105.882C186.04 101.898 195.185 93.5615 187.942 89.4118C180.989 85.4229 173.512 104.669 173.512 104.669L170.263 111.755ZM156.771 156.929C155.314 157.779 156.743 158.11 163.425 156.777C166.559 156.157 172.933 154.778 170.778 152.058C168.692 149.438 160.144 154.953 160.144 154.953L156.771 156.929Z" fill="#FEBB1B"/>
<path opacity="0.3" d="M163.871 110.376C163.871 110.376 157.465 94.0992 163.168 92.1645C169.105 90.1471 168.843 100.896 168.613 106.135C168.131 117.329 166.895 119.411 165.971 116.677L163.871 110.376ZM161.945 123.074C163.705 125.372 164.202 122.991 161.026 112.242C159.537 107.187 156.302 96.9622 151.339 100.799C146.573 104.476 157.915 117.803 157.915 117.803L161.945 123.074ZM158.545 132.403C160.222 133.892 160.254 132.012 156.27 124.25C154.4 120.615 150.443 113.258 147.203 116.897C144.092 120.408 154.694 128.942 154.694 128.942L158.545 132.403ZM154.868 143.496C156.546 144.99 156.578 143.106 152.594 135.348C150.723 131.713 146.766 124.351 143.527 127.996C140.434 131.516 151.003 140.05 151.003 140.05L154.868 143.496ZM165.484 120.914C162.8 121.962 164.932 123.101 176.141 123.069C181.398 123.069 192.133 122.83 189.845 116.989C187.653 111.378 171.688 118.524 171.688 118.524L165.484 120.914ZM162.428 128.377C159.588 128.869 161.454 130.413 172.446 132.609C177.598 133.643 188.163 135.551 187.083 129.393C186.049 123.455 168.981 127.288 168.981 127.288L162.428 128.377ZM159.009 137.49C156.592 137.839 158.136 139.186 167.377 141.3C171.711 142.292 180.603 144.153 179.831 138.901C179.096 133.846 164.574 136.704 164.574 136.704L159.009 137.49ZM156.412 145.932C154.046 146.534 155.723 147.71 165.144 148.832C169.555 149.355 178.595 150.265 177.276 145.123C176.003 140.187 161.867 144.558 161.867 144.558L156.412 145.932ZM170.263 111.755C168.885 114.843 171.748 114.375 181.481 105.882C186.04 101.898 195.185 93.5615 187.942 89.4118C180.989 85.4229 173.512 104.669 173.512 104.669L170.263 111.755ZM156.771 156.929C155.314 157.779 156.743 158.11 163.425 156.777C166.559 156.157 172.933 154.778 170.778 152.058C168.692 149.438 160.144 154.953 160.144 154.953L156.771 156.929Z" fill="white"/>
<path d="M166.697 117.954L165.58 99.3749L166.697 117.954ZM163.163 124.085L156.105 108.106L163.163 124.085ZM181.38 119.439L164.464 121.865L181.38 119.439ZM159.505 132.697L150.346 120.946L159.505 132.697ZM161.114 129.094L173.733 129.728L161.114 129.094ZM158.127 138.106L167.777 139.062L158.127 138.106ZM155.797 143.832L151.003 136.621L155.797 143.832ZM155.245 146.378L166.591 146.483L155.245 146.378ZM152.947 167.664C153.023 167.658 153.094 167.622 153.144 167.565C153.194 167.507 153.219 167.432 153.214 167.356C152.492 156.52 156.684 138.772 163.407 124.204C167.704 114.894 184.546 96.5946 184.725 96.4108C184.779 96.3565 184.81 96.283 184.81 96.2063C184.81 96.1296 184.779 96.0561 184.725 96.0018C184.699 95.9751 184.667 95.9539 184.633 95.9395C184.598 95.925 184.561 95.9176 184.523 95.9176C184.485 95.9176 184.448 95.925 184.414 95.9395C184.379 95.9539 184.347 95.9751 184.321 96.0018C184.151 96.1856 167.239 114.554 162.906 123.947C156.059 138.869 151.923 156.295 152.658 167.393C152.664 167.466 152.696 167.534 152.75 167.585C152.804 167.635 152.874 167.663 152.947 167.664ZM166.693 118.239C166.769 118.235 166.84 118.2 166.89 118.143C166.941 118.087 166.967 118.012 166.964 117.936L165.865 99.3473C165.864 99.3095 165.854 99.2724 165.838 99.2381C165.822 99.2039 165.799 99.1733 165.771 99.1481C165.742 99.1228 165.709 99.1035 165.674 99.0911C165.638 99.0788 165.6 99.0737 165.562 99.0762C165.486 99.0809 165.415 99.1154 165.364 99.1722C165.313 99.2289 165.287 99.3034 165.291 99.3795L166.408 117.959C166.411 118.032 166.443 118.101 166.496 118.152C166.549 118.202 166.619 118.23 166.693 118.23V118.239ZM163.264 124.347C163.333 124.316 163.387 124.259 163.415 124.188C163.442 124.118 163.441 124.04 163.411 123.97L156.348 107.991C156.318 107.922 156.261 107.867 156.19 107.84C156.119 107.812 156.041 107.814 155.971 107.844C155.902 107.875 155.847 107.932 155.82 108.002C155.792 108.073 155.794 108.152 155.824 108.221L162.883 124.2C162.905 124.251 162.942 124.295 162.988 124.326C163.034 124.357 163.089 124.374 163.145 124.374C163.192 124.377 163.24 124.367 163.283 124.347H163.264ZM164.487 122.141L181.394 119.724C181.434 119.723 181.475 119.713 181.511 119.696C181.548 119.678 181.581 119.653 181.608 119.622C181.634 119.591 181.654 119.555 181.665 119.516C181.677 119.477 181.68 119.435 181.674 119.395C181.669 119.355 181.655 119.316 181.633 119.281C181.612 119.246 181.583 119.217 181.549 119.194C181.515 119.171 181.477 119.156 181.436 119.149C181.396 119.142 181.355 119.144 181.315 119.154L164.409 121.571C164.333 121.576 164.262 121.611 164.212 121.668C164.162 121.724 164.137 121.799 164.142 121.874C164.147 121.95 164.182 122.021 164.238 122.071C164.295 122.121 164.37 122.146 164.445 122.141H164.487ZM159.666 132.927C159.726 132.879 159.765 132.811 159.774 132.735C159.784 132.659 159.763 132.583 159.717 132.522L150.553 120.749C150.506 120.688 150.437 120.648 150.361 120.638C150.284 120.628 150.207 120.649 150.146 120.696C150.086 120.743 150.046 120.812 150.036 120.888C150.026 120.964 150.047 121.041 150.094 121.102L159.275 132.894C159.302 132.929 159.336 132.957 159.375 132.976C159.414 132.995 159.457 133.005 159.501 133.005C159.569 133.001 159.634 132.974 159.684 132.927H159.666ZM173.986 129.742C173.988 129.666 173.961 129.592 173.909 129.536C173.857 129.48 173.786 129.447 173.71 129.443L161.114 128.804C161.043 128.809 160.976 128.84 160.927 128.891C160.877 128.941 160.848 129.009 160.844 129.079C160.841 129.15 160.864 129.22 160.908 129.275C160.953 129.33 161.016 129.367 161.086 129.379L173.705 130.018C173.781 130.02 173.855 129.993 173.911 129.941C173.967 129.889 174 129.818 174.004 129.742H173.986ZM168.044 139.089C168.048 139.051 168.045 139.013 168.034 138.976C168.024 138.94 168.006 138.906 167.982 138.876C167.958 138.847 167.928 138.822 167.895 138.804C167.861 138.786 167.824 138.775 167.786 138.772L158.136 137.821C158.098 137.817 158.06 137.821 158.024 137.832C157.988 137.842 157.955 137.86 157.926 137.884C157.897 137.908 157.873 137.938 157.855 137.971C157.838 138.004 157.827 138.041 157.823 138.078C157.817 138.154 157.84 138.228 157.888 138.287C157.936 138.345 158.005 138.383 158.081 138.391L167.731 139.347H167.759C167.833 139.352 167.906 139.328 167.963 139.28C168.019 139.231 168.055 139.163 168.062 139.089H168.044ZM155.934 144.071C155.998 144.028 156.043 143.963 156.058 143.888C156.074 143.813 156.059 143.735 156.017 143.671L151.247 136.461C151.203 136.398 151.137 136.356 151.063 136.341C150.988 136.326 150.911 136.341 150.847 136.382C150.783 136.425 150.739 136.49 150.723 136.565C150.708 136.64 150.723 136.718 150.765 136.782L155.535 143.993C155.562 144.032 155.598 144.064 155.641 144.087C155.683 144.109 155.73 144.121 155.778 144.121C155.84 144.125 155.902 144.107 155.953 144.071H155.934ZM166.881 146.483C166.88 146.408 166.85 146.335 166.796 146.281C166.743 146.228 166.672 146.196 166.596 146.194L155.25 146.088C155.174 146.088 155.102 146.118 155.048 146.172C154.995 146.225 154.965 146.297 154.965 146.373C154.964 146.411 154.97 146.449 154.984 146.484C154.998 146.52 155.019 146.552 155.045 146.579C155.072 146.606 155.104 146.627 155.139 146.642C155.174 146.656 155.212 146.663 155.25 146.663L166.596 146.768C166.635 146.77 166.674 146.764 166.71 146.751C166.746 146.737 166.78 146.717 166.808 146.69C166.836 146.663 166.859 146.631 166.875 146.596C166.89 146.56 166.899 146.522 166.899 146.483H166.881ZM151.656 163.45C151.679 163.399 153.614 158.069 159.432 156.796C159.507 156.779 159.572 156.734 159.613 156.669C159.655 156.604 159.669 156.526 159.652 156.451C159.634 156.377 159.587 156.314 159.523 156.274C159.459 156.234 159.382 156.22 159.308 156.235C153.173 157.577 151.137 163.206 151.114 163.261C151.09 163.334 151.096 163.413 151.129 163.482C151.162 163.55 151.221 163.603 151.293 163.629H151.385C151.446 163.634 151.507 163.62 151.559 163.588C151.612 163.555 151.652 163.507 151.674 163.45H151.656ZM152.947 167.664C153.023 167.658 153.094 167.622 153.144 167.565C153.194 167.507 153.219 167.432 153.214 167.356C152.492 156.52 156.684 138.772 163.407 124.204C167.704 114.894 184.546 96.5946 184.725 96.4108C184.779 96.3565 184.81 96.283 184.81 96.2063C184.81 96.1296 184.779 96.0561 184.725 96.0018C184.699 95.9751 184.667 95.9539 184.633 95.9395C184.598 95.925 184.561 95.9176 184.523 95.9176C184.485 95.9176 184.448 95.925 184.414 95.9395C184.379 95.9539 184.347 95.9751 184.321 96.0018C184.151 96.1856 167.239 114.554 162.906 123.947C156.059 138.869 151.923 156.295 152.658 167.393C152.664 167.466 152.696 167.534 152.75 167.585C152.804 167.635 152.874 167.663 152.947 167.664ZM166.693 118.239C166.769 118.235 166.84 118.2 166.89 118.143C166.941 118.087 166.967 118.012 166.964 117.936L165.865 99.3473C165.864 99.3095 165.854 99.2724 165.838 99.2381C165.822 99.2039 165.799 99.1733 165.771 99.1481C165.742 99.1228 165.709 99.1035 165.674 99.0911C165.638 99.0788 165.6 99.0737 165.562 99.0762C165.486 99.0809 165.415 99.1154 165.364 99.1722C165.313 99.2289 165.287 99.3034 165.291 99.3795L166.408 117.959C166.411 118.032 166.443 118.101 166.496 118.152C166.549 118.202 166.619 118.23 166.693 118.23V118.239ZM163.264 124.347C163.333 124.316 163.387 124.259 163.415 124.188C163.442 124.118 163.441 124.04 163.411 123.97L156.348 107.991C156.318 107.922 156.261 107.867 156.19 107.84C156.119 107.812 156.041 107.814 155.971 107.844C155.902 107.875 155.847 107.932 155.82 108.002C155.792 108.073 155.794 108.152 155.824 108.221L162.883 124.2C162.905 124.251 162.942 124.295 162.988 124.326C163.034 124.357 163.089 124.374 163.145 124.374C163.192 124.377 163.24 124.367 163.283 124.347H163.264ZM164.487 122.141L181.394 119.724C181.434 119.723 181.475 119.713 181.511 119.696C181.548 119.678 181.581 119.653 181.608 119.622C181.634 119.591 181.654 119.555 181.665 119.516C181.677 119.477 181.68 119.435 181.674 119.395C181.669 119.355 181.655 119.316 181.633 119.281C181.612 119.246 181.583 119.217 181.549 119.194C181.515 119.171 181.477 119.156 181.436 119.149C181.396 119.142 181.355 119.144 181.315 119.154L164.409 121.571C164.333 121.576 164.262 121.611 164.212 121.668C164.162 121.724 164.137 121.799 164.142 121.874C164.147 121.95 164.182 122.021 164.238 122.071C164.295 122.121 164.37 122.146 164.445 122.141H164.487ZM159.666 132.927C159.726 132.879 159.765 132.811 159.774 132.735C159.784 132.659 159.763 132.583 159.717 132.522L150.553 120.749C150.53 120.718 150.501 120.693 150.468 120.674C150.435 120.655 150.398 120.643 150.361 120.638C150.323 120.633 150.285 120.636 150.248 120.645C150.211 120.655 150.177 120.672 150.146 120.696C150.116 120.719 150.091 120.748 150.072 120.781C150.053 120.814 150.041 120.85 150.036 120.888C150.031 120.926 150.033 120.964 150.043 121.001C150.053 121.038 150.07 121.072 150.094 121.102L159.275 132.894C159.302 132.929 159.336 132.957 159.375 132.976C159.414 132.995 159.457 133.005 159.501 133.005C159.569 133.001 159.634 132.974 159.684 132.927H159.666ZM173.986 129.742C173.988 129.666 173.961 129.592 173.909 129.536C173.857 129.48 173.786 129.447 173.71 129.443L161.114 128.804C161.043 128.809 160.976 128.84 160.927 128.891C160.877 128.941 160.848 129.009 160.844 129.079C160.841 129.15 160.864 129.22 160.908 129.275C160.953 129.33 161.016 129.367 161.086 129.379L173.705 130.018C173.781 130.02 173.855 129.993 173.911 129.941C173.967 129.889 174 129.818 174.004 129.742H173.986ZM168.044 139.089C168.048 139.051 168.045 139.013 168.034 138.976C168.024 138.94 168.006 138.906 167.982 138.876C167.958 138.847 167.928 138.822 167.895 138.804C167.861 138.786 167.824 138.775 167.786 138.772L158.136 137.821C158.098 137.817 158.06 137.821 158.024 137.832C157.988 137.842 157.955 137.86 157.926 137.884C157.897 137.908 157.873 137.938 157.855 137.971C157.838 138.004 157.827 138.041 157.823 138.078C157.817 138.154 157.84 138.228 157.888 138.287C157.936 138.345 158.005 138.383 158.081 138.391L167.731 139.347H167.759C167.833 139.352 167.906 139.328 167.963 139.28C168.019 139.231 168.055 139.163 168.062 139.089H168.044ZM155.934 144.071C155.998 144.028 156.043 143.963 156.058 143.888C156.074 143.813 156.059 143.735 156.017 143.671L151.247 136.461C151.203 136.398 151.137 136.356 151.063 136.341C150.988 136.326 150.911 136.341 150.847 136.382C150.783 136.425 150.739 136.49 150.723 136.565C150.708 136.64 150.723 136.718 150.765 136.782L155.535 143.993C155.562 144.032 155.598 144.064 155.641 144.087C155.683 144.109 155.73 144.121 155.778 144.121C155.84 144.125 155.902 144.107 155.953 144.071H155.934ZM166.881 146.483C166.88 146.408 166.85 146.335 166.796 146.281C166.743 146.228 166.672 146.196 166.596 146.194L155.25 146.088C155.174 146.088 155.102 146.118 155.048 146.172C154.995 146.225 154.965 146.297 154.965 146.373C154.964 146.411 154.97 146.449 154.984 146.484C154.998 146.52 155.019 146.552 155.045 146.579C155.072 146.606 155.104 146.627 155.139 146.642C155.174 146.656 155.212 146.663 155.25 146.663L166.596 146.768C166.635 146.77 166.674 146.764 166.71 146.751C166.746 146.737 166.78 146.717 166.808 146.69C166.836 146.663 166.859 146.631 166.875 146.596C166.89 146.56 166.899 146.522 166.899 146.483H166.881ZM151.656 163.45C151.679 163.399 153.614 158.069 159.432 156.796C159.507 156.779 159.572 156.734 159.613 156.669C159.655 156.604 159.669 156.526 159.652 156.451C159.634 156.377 159.587 156.314 159.523 156.274C159.459 156.234 159.382 156.22 159.308 156.235C153.173 157.577 151.137 163.206 151.114 163.261C151.09 163.334 151.096 163.413 151.129 163.482C151.162 163.55 151.221 163.603 151.293 163.629H151.385C151.446 163.634 151.507 163.62 151.559 163.588C151.612 163.555 151.652 163.507 151.674 163.45H151.656Z" fill="#FEBB1B"/>
<path opacity="0.2" d="M166.697 117.954L165.58 99.3749L166.697 117.954ZM163.163 124.085L156.105 108.106L163.163 124.085ZM181.38 119.439L164.464 121.865L181.38 119.439ZM159.505 132.697L150.346 120.946L159.505 132.697ZM161.114 129.094L173.733 129.728L161.114 129.094ZM158.127 138.106L167.777 139.062L158.127 138.106ZM155.797 143.832L151.003 136.621L155.797 143.832ZM155.245 146.378L166.591 146.483L155.245 146.378ZM152.947 167.664C153.023 167.658 153.094 167.622 153.144 167.565C153.194 167.507 153.219 167.432 153.214 167.356C152.492 156.52 156.684 138.772 163.407 124.204C167.704 114.894 184.546 96.5946 184.725 96.4108C184.779 96.3565 184.81 96.283 184.81 96.2063C184.81 96.1296 184.779 96.0561 184.725 96.0018C184.699 95.9751 184.667 95.9539 184.633 95.9395C184.598 95.925 184.561 95.9176 184.523 95.9176C184.485 95.9176 184.448 95.925 184.414 95.9395C184.379 95.9539 184.347 95.9751 184.321 96.0018C184.151 96.1856 167.239 114.554 162.906 123.947C156.059 138.869 151.923 156.295 152.658 167.393C152.664 167.466 152.696 167.534 152.75 167.585C152.804 167.635 152.874 167.663 152.947 167.664ZM166.693 118.239C166.769 118.235 166.84 118.2 166.89 118.143C166.941 118.087 166.967 118.012 166.964 117.936L165.865 99.3473C165.864 99.3095 165.854 99.2724 165.838 99.2381C165.822 99.2039 165.799 99.1733 165.771 99.1481C165.742 99.1228 165.709 99.1035 165.674 99.0911C165.638 99.0788 165.6 99.0737 165.562 99.0762C165.486 99.0809 165.415 99.1154 165.364 99.1722C165.313 99.2289 165.287 99.3034 165.291 99.3795L166.408 117.959C166.411 118.032 166.443 118.101 166.496 118.152C166.549 118.202 166.619 118.23 166.693 118.23V118.239ZM163.264 124.347C163.333 124.316 163.387 124.259 163.415 124.188C163.442 124.118 163.441 124.04 163.411 123.97L156.348 107.991C156.318 107.922 156.261 107.867 156.19 107.84C156.119 107.812 156.041 107.814 155.971 107.844C155.902 107.875 155.847 107.932 155.82 108.002C155.792 108.073 155.794 108.152 155.824 108.221L162.883 124.2C162.905 124.251 162.942 124.295 162.988 124.326C163.034 124.357 163.089 124.374 163.145 124.374C163.192 124.377 163.24 124.367 163.283 124.347H163.264ZM164.487 122.141L181.394 119.724C181.434 119.723 181.475 119.713 181.511 119.696C181.548 119.678 181.581 119.653 181.608 119.622C181.634 119.591 181.654 119.555 181.665 119.516C181.677 119.477 181.68 119.435 181.674 119.395C181.669 119.355 181.655 119.316 181.633 119.281C181.612 119.246 181.583 119.217 181.549 119.194C181.515 119.171 181.477 119.156 181.436 119.149C181.396 119.142 181.355 119.144 181.315 119.154L164.409 121.571C164.333 121.576 164.262 121.611 164.212 121.668C164.162 121.724 164.137 121.799 164.142 121.874C164.147 121.95 164.182 122.021 164.238 122.071C164.295 122.121 164.37 122.146 164.445 122.141H164.487ZM159.666 132.927C159.726 132.879 159.765 132.811 159.774 132.735C159.784 132.659 159.763 132.583 159.717 132.522L150.553 120.749C150.506 120.688 150.437 120.648 150.361 120.638C150.284 120.628 150.207 120.649 150.146 120.696C150.086 120.743 150.046 120.812 150.036 120.888C150.026 120.964 150.047 121.041 150.094 121.102L159.275 132.894C159.302 132.929 159.336 132.957 159.375 132.976C159.414 132.995 159.457 133.005 159.501 133.005C159.569 133.001 159.634 132.974 159.684 132.927H159.666ZM173.986 129.742C173.988 129.666 173.961 129.592 173.909 129.536C173.857 129.48 173.786 129.447 173.71 129.443L161.114 128.804C161.043 128.809 160.976 128.84 160.927 128.891C160.877 128.941 160.848 129.009 160.844 129.079C160.841 129.15 160.864 129.22 160.908 129.275C160.953 129.33 161.016 129.367 161.086 129.379L173.705 130.018C173.781 130.02 173.855 129.993 173.911 129.941C173.967 129.889 174 129.818 174.004 129.742H173.986ZM168.044 139.089C168.048 139.051 168.045 139.013 168.034 138.976C168.024 138.94 168.006 138.906 167.982 138.876C167.958 138.847 167.928 138.822 167.895 138.804C167.861 138.786 167.824 138.775 167.786 138.772L158.136 137.821C158.098 137.817 158.06 137.821 158.024 137.832C157.988 137.842 157.955 137.86 157.926 137.884C157.897 137.908 157.873 137.938 157.855 137.971C157.838 138.004 157.827 138.041 157.823 138.078C157.817 138.154 157.84 138.228 157.888 138.287C157.936 138.345 158.005 138.383 158.081 138.391L167.731 139.347H167.759C167.833 139.352 167.906 139.328 167.963 139.28C168.019 139.231 168.055 139.163 168.062 139.089H168.044ZM155.934 144.071C155.998 144.028 156.043 143.963 156.058 143.888C156.074 143.813 156.059 143.735 156.017 143.671L151.247 136.461C151.203 136.398 151.137 136.356 151.063 136.341C150.988 136.326 150.911 136.341 150.847 136.382C150.783 136.425 150.739 136.49 150.723 136.565C150.708 136.64 150.723 136.718 150.765 136.782L155.535 143.993C155.562 144.032 155.598 144.064 155.641 144.087C155.683 144.109 155.73 144.121 155.778 144.121C155.84 144.125 155.902 144.107 155.953 144.071H155.934ZM166.881 146.483C166.88 146.408 166.85 146.335 166.796 146.281C166.743 146.228 166.672 146.196 166.596 146.194L155.25 146.088C155.174 146.088 155.102 146.118 155.048 146.172C154.995 146.225 154.965 146.297 154.965 146.373C154.964 146.411 154.97 146.449 154.984 146.484C154.998 146.52 155.019 146.552 155.045 146.579C155.072 146.606 155.104 146.627 155.139 146.642C155.174 146.656 155.212 146.663 155.25 146.663L166.596 146.768C166.635 146.77 166.674 146.764 166.71 146.751C166.746 146.737 166.78 146.717 166.808 146.69C166.836 146.663 166.859 146.631 166.875 146.596C166.89 146.56 166.899 146.522 166.899 146.483H166.881ZM151.656 163.45C151.679 163.399 153.614 158.069 159.432 156.796C159.507 156.779 159.572 156.734 159.613 156.669C159.655 156.604 159.669 156.526 159.652 156.451C159.634 156.377 159.587 156.314 159.523 156.274C159.459 156.234 159.382 156.22 159.308 156.235C153.173 157.577 151.137 163.206 151.114 163.261C151.09 163.334 151.096 163.413 151.129 163.482C151.162 163.55 151.221 163.603 151.293 163.629H151.385C151.446 163.634 151.507 163.62 151.559 163.588C151.612 163.555 151.652 163.507 151.674 163.45H151.656ZM152.947 167.664C153.023 167.658 153.094 167.622 153.144 167.565C153.194 167.507 153.219 167.432 153.214 167.356C152.492 156.52 156.684 138.772 163.407 124.204C167.704 114.894 184.546 96.5946 184.725 96.4108C184.779 96.3565 184.81 96.283 184.81 96.2063C184.81 96.1296 184.779 96.0561 184.725 96.0018C184.699 95.9751 184.667 95.9539 184.633 95.9395C184.598 95.925 184.561 95.9176 184.523 95.9176C184.485 95.9176 184.448 95.925 184.414 95.9395C184.379 95.9539 184.347 95.9751 184.321 96.0018C184.151 96.1856 167.239 114.554 162.906 123.947C156.059 138.869 151.923 156.295 152.658 167.393C152.664 167.466 152.696 167.534 152.75 167.585C152.804 167.635 152.874 167.663 152.947 167.664ZM166.693 118.239C166.769 118.235 166.84 118.2 166.89 118.143C166.941 118.087 166.967 118.012 166.964 117.936L165.865 99.3473C165.864 99.3095 165.854 99.2724 165.838 99.2381C165.822 99.2039 165.799 99.1733 165.771 99.1481C165.742 99.1228 165.709 99.1035 165.674 99.0911C165.638 99.0788 165.6 99.0737 165.562 99.0762C165.486 99.0809 165.415 99.1154 165.364 99.1722C165.313 99.2289 165.287 99.3034 165.291 99.3795L166.408 117.959C166.411 118.032 166.443 118.101 166.496 118.152C166.549 118.202 166.619 118.23 166.693 118.23V118.239ZM163.264 124.347C163.333 124.316 163.387 124.259 163.415 124.188C163.442 124.118 163.441 124.04 163.411 123.97L156.348 107.991C156.318 107.922 156.261 107.867 156.19 107.84C156.119 107.812 156.041 107.814 155.971 107.844C155.902 107.875 155.847 107.932 155.82 108.002C155.792 108.073 155.794 108.152 155.824 108.221L162.883 124.2C162.905 124.251 162.942 124.295 162.988 124.326C163.034 124.357 163.089 124.374 163.145 124.374C163.192 124.377 163.24 124.367 163.283 124.347H163.264ZM164.487 122.141L181.394 119.724C181.434 119.723 181.475 119.713 181.511 119.696C181.548 119.678 181.581 119.653 181.608 119.622C181.634 119.591 181.654 119.555 181.665 119.516C181.677 119.477 181.68 119.435 181.674 119.395C181.669 119.355 181.655 119.316 181.633 119.281C181.612 119.246 181.583 119.217 181.549 119.194C181.515 119.171 181.477 119.156 181.436 119.149C181.396 119.142 181.355 119.144 181.315 119.154L164.409 121.571C164.333 121.576 164.262 121.611 164.212 121.668C164.162 121.724 164.137 121.799 164.142 121.874C164.147 121.95 164.182 122.021 164.238 122.071C164.295 122.121 164.37 122.146 164.445 122.141H164.487ZM159.666 132.927C159.726 132.879 159.765 132.811 159.774 132.735C159.784 132.659 159.763 132.583 159.717 132.522L150.553 120.749C150.53 120.718 150.501 120.693 150.468 120.674C150.435 120.655 150.398 120.643 150.361 120.638C150.323 120.633 150.285 120.636 150.248 120.645C150.211 120.655 150.177 120.672 150.146 120.696C150.116 120.719 150.091 120.748 150.072 120.781C150.053 120.814 150.041 120.85 150.036 120.888C150.031 120.926 150.033 120.964 150.043 121.001C150.053 121.038 150.07 121.072 150.094 121.102L159.275 132.894C159.302 132.929 159.336 132.957 159.375 132.976C159.414 132.995 159.457 133.005 159.501 133.005C159.569 133.001 159.634 132.974 159.684 132.927H159.666ZM173.986 129.742C173.988 129.666 173.961 129.592 173.909 129.536C173.857 129.48 173.786 129.447 173.71 129.443L161.114 128.804C161.043 128.809 160.976 128.84 160.927 128.891C160.877 128.941 160.848 129.009 160.844 129.079C160.841 129.15 160.864 129.22 160.908 129.275C160.953 129.33 161.016 129.367 161.086 129.379L173.705 130.018C173.781 130.02 173.855 129.993 173.911 129.941C173.967 129.889 174 129.818 174.004 129.742H173.986ZM168.044 139.089C168.048 139.051 168.045 139.013 168.034 138.976C168.024 138.94 168.006 138.906 167.982 138.876C167.958 138.847 167.928 138.822 167.895 138.804C167.861 138.786 167.824 138.775 167.786 138.772L158.136 137.821C158.098 137.817 158.06 137.821 158.024 137.832C157.988 137.842 157.955 137.86 157.926 137.884C157.897 137.908 157.873 137.938 157.855 137.971C157.838 138.004 157.827 138.041 157.823 138.078C157.817 138.154 157.84 138.228 157.888 138.287C157.936 138.345 158.005 138.383 158.081 138.391L167.731 139.347H167.759C167.833 139.352 167.906 139.328 167.963 139.28C168.019 139.231 168.055 139.163 168.062 139.089H168.044ZM155.934 144.071C155.998 144.028 156.043 143.963 156.058 143.888C156.074 143.813 156.059 143.735 156.017 143.671L151.247 136.461C151.203 136.398 151.137 136.356 151.063 136.341C150.988 136.326 150.911 136.341 150.847 136.382C150.783 136.425 150.739 136.49 150.723 136.565C150.708 136.64 150.723 136.718 150.765 136.782L155.535 143.993C155.562 144.032 155.598 144.064 155.641 144.087C155.683 144.109 155.73 144.121 155.778 144.121C155.84 144.125 155.902 144.107 155.953 144.071H155.934ZM166.881 146.483C166.88 146.408 166.85 146.335 166.796 146.281C166.743 146.228 166.672 146.196 166.596 146.194L155.25 146.088C155.174 146.088 155.102 146.118 155.048 146.172C154.995 146.225 154.965 146.297 154.965 146.373C154.964 146.411 154.97 146.449 154.984 146.484C154.998 146.52 155.019 146.552 155.045 146.579C155.072 146.606 155.104 146.627 155.139 146.642C155.174 146.656 155.212 146.663 155.25 146.663L166.596 146.768C166.635 146.77 166.674 146.764 166.71 146.751C166.746 146.737 166.78 146.717 166.808 146.69C166.836 146.663 166.859 146.631 166.875 146.596C166.89 146.56 166.899 146.522 166.899 146.483H166.881ZM151.656 163.45C151.679 163.399 153.614 158.069 159.432 156.796C159.507 156.779 159.572 156.734 159.613 156.669C159.655 156.604 159.669 156.526 159.652 156.451C159.634 156.377 159.587 156.314 159.523 156.274C159.459 156.234 159.382 156.22 159.308 156.235C153.173 157.577 151.137 163.206 151.114 163.261C151.09 163.334 151.096 163.413 151.129 163.482C151.162 163.55 151.221 163.603 151.293 163.629H151.385C151.446 163.634 151.507 163.62 151.559 163.588C151.612 163.555 151.652 163.507 151.674 163.45H151.656Z" fill="black"/>
<path d="M160.452 159.562H147.442V162.255H148.577L150.925 176.947H156.968L159.317 162.255H160.452V159.562Z" fill="#FEBB1B"/>
<path opacity="0.3" d="M160.452 159.562H147.442V162.255H148.577L150.925 176.947H156.968L159.317 162.255H160.452V159.562Z" fill="white"/>
<path d="M43.3218 78.1299L28.1888 73.1898L26.8423 69.6328L23.768 69.5363L18.189 68.4794L18.86 69.6328L25.8819 74.7292L27.6144 75.5932L43.4413 83.8605L43.3218 78.1299Z" fill="white" stroke="#263238" stroke-width="0.203749" stroke-miterlimit="10"/>
<path d="M26.8423 69.6327L25.3993 68.7688L22.518 69.8258L22.9959 70.4002L26.8423 69.6327Z" fill="white" stroke="#263238" stroke-width="0.203749" stroke-linejoin="round"/>
<path d="M43.3218 78.1299L28.1888 73.1898L26.8423 69.6328L23.768 69.5363L18.189 68.4794L18.86 69.6328L25.8819 74.7292L27.6144 75.5932L43.4413 83.8605L43.3218 78.1299Z" fill="white"/>
<mask id="mask0_8_3696" style="mask-type:luminance" maskUnits="userSpaceOnUse" x="18" y="68" width="26" height="16">
<path d="M43.3218 78.1299L28.1888 73.1898L26.8423 69.6328L23.768 69.5363L18.189 68.4794L18.86 69.6328L25.8819 74.7292L27.6144 75.5932L43.4413 83.8605L43.3218 78.1299Z" fill="white"/>
</mask>
<g mask="url(#mask0_8_3696)">
<path opacity="0.5" d="M43.3218 78.1299L28.1888 73.1898L26.8423 69.6328L23.768 69.5363L18.189 68.4794L18.86 69.6328L25.8819 74.7292L27.6144 75.5932L43.4413 83.8605L43.3218 78.1299Z" fill="#FEBB1B" stroke="#263238" stroke-width="0.203749" stroke-miterlimit="10"/>
</g>
<path d="M43.3218 78.1299L28.1888 73.1898L26.8423 69.6328L23.768 69.5363L18.189 68.4794L18.86 69.6328L25.8819 74.7292L27.6144 75.5932L43.4413 83.8605L43.3218 78.1299Z" stroke="#263238" stroke-width="0.203749" stroke-miterlimit="10"/>
<path d="M26.8423 69.6327L25.3993 68.7688L22.518 69.8258L22.9959 70.4002L26.8423 69.6327Z" fill="white"/>
<mask id="mask1_8_3696" style="mask-type:luminance" maskUnits="userSpaceOnUse" x="22" y="68" width="5" height="3">
<path d="M26.8423 69.6327L25.3993 68.7688L22.518 69.8258L22.9959 70.4002L26.8423 69.6327Z" fill="white"/>
</mask>
<g mask="url(#mask1_8_3696)">
<path opacity="0.5" d="M26.8423 69.6327L25.3993 68.7688L22.518 69.8258L22.9959 70.4002L26.8423 69.6327Z" fill="#FEBB1B" stroke="#263238" stroke-width="0.203749" stroke-linejoin="round"/>
</g>
<path d="M26.8423 69.6327L25.3993 68.7688L22.518 69.8258L22.9959 70.4002L26.8423 69.6327Z" stroke="#263238" stroke-width="0.203749" stroke-linejoin="round"/>
<path d="M46.5341 46.0672C46.5341 46.0672 46.2997 48.1351 46.8833 49.4632C47.4669 50.7913 50.7068 55.2903 50.7068 55.2903L44.6591 60.1386C44.6591 60.1386 42.15 55.0835 41.672 54.2655C41.1941 53.4475 40.6197 49.9274 42.1775 47.4045C43.7354 44.8815 45.978 44.2014 46.5341 46.0672Z" fill="white"/>
<mask id="mask2_8_3696" style="mask-type:luminance" maskUnits="userSpaceOnUse" x="41" y="45" width="10" height="16">
<path d="M46.5341 46.0672C46.5341 46.0672 46.2997 48.1351 46.8833 49.4632C47.4669 50.7913 50.7068 55.2903 50.7068 55.2903L44.6591 60.1386C44.6591 60.1386 42.15 55.0835 41.672 54.2655C41.1941 53.4475 40.6197 49.9274 42.1775 47.4045C43.7354 44.8815 45.978 44.2014 46.5341 46.0672Z" fill="white"/>
</mask>
<g mask="url(#mask2_8_3696)">
<g style="mix-blend-mode:multiply" opacity="0.5">
<path d="M43.4275 52.7122L46.0515 58.1532L44.6545 60.1431L42.0167 55.4327L43.4275 52.7122Z" fill="#FEBB1B"/>
</g>
</g>
<path d="M46.5341 46.0672C46.5341 46.0672 46.2997 48.1351 46.8833 49.4632C47.4669 50.7913 50.7068 55.2903 50.7068 55.2903L44.6591 60.1386C44.6591 60.1386 42.15 55.0835 41.672 54.2655C41.1941 53.4475 40.6197 49.9274 42.1775 47.4045C43.7354 44.8815 45.978 44.2014 46.5341 46.0672Z" stroke="#263238" stroke-width="0.203749" stroke-miterlimit="10"/>
<path d="M48.409 42.2804C48.0368 39.9827 45.4036 35.3091 41.2263 35.4883C38.5149 35.6078 37.2466 36.1546 36.0701 36.821C35.1112 37.386 34.2173 38.0548 33.4047 38.8154C31.3643 41.2648 30.6474 41.9358 31.0427 43.8107C31.0102 44.5586 31.1274 45.3054 31.3873 46.0074C32.0123 47.6755 32.4397 48.7647 32.982 49.5597C32.8165 50.3363 32.3845 52.3859 32.3616 52.8547C32.3386 53.3234 33.7402 52.9971 34.4479 52.8179C35.7622 55.759 38.1703 57.7994 38.9193 58.0338C40.2245 58.4428 42.2878 56.2967 43.3816 54.6331C44.4753 52.9696 43.6481 51.0992 43.6527 50.3547C43.6573 49.6102 46.1113 47.9743 47.0212 47.455C47.9311 46.9357 48.7767 44.5736 48.409 42.2804Z" fill="white"/>
<mask id="mask3_8_3696" style="mask-type:luminance" maskUnits="userSpaceOnUse" x="30" y="35" width="19" height="24">
<path d="M48.409 42.2804C48.0368 39.9827 45.4036 35.3091 41.2263 35.4883C38.5149 35.6078 37.2466 36.1546 36.0701 36.821C35.1112 37.386 34.2173 38.0548 33.4047 38.8154C31.3643 41.2648 30.6474 41.9358 31.0427 43.8107C31.0102 44.5586 31.1274 45.3054 31.3873 46.0074C32.0123 47.6755 32.4397 48.7647 32.982 49.5597C32.8165 50.3363 32.3845 52.3859 32.3616 52.8547C32.3386 53.3234 33.7402 52.9971 34.4479 52.8179C35.7622 55.759 38.1703 57.7994 38.9193 58.0338C40.2245 58.4428 42.2878 56.2967 43.3816 54.6331C44.4753 52.9696 43.6481 51.0992 43.6527 50.3547C43.6573 49.6102 46.1113 47.9743 47.0212 47.455C47.9311 46.9357 48.7767 44.5736 48.409 42.2804Z" fill="white"/>
</mask>
<g mask="url(#mask3_8_3696)">
<g style="mix-blend-mode:multiply" opacity="0.5">
<path d="M31.0611 43.8108C31.0286 44.5586 31.1458 45.3054 31.4057 46.0074C32.0307 47.6756 32.4581 48.7647 33.0004 49.5597C32.8349 50.3364 32.403 52.386 32.38 52.8547C32.357 53.3234 33.7586 52.9972 34.4663 52.8179C35.7806 55.759 38.1887 57.7994 38.9377 58.0338C40.2429 58.4428 42.3062 56.2967 43.4 54.6331C43.6732 54.2178 43.8506 53.7469 43.9193 53.2545C43.8595 53.0385 43.8182 52.9052 43.8182 52.9052C43.8182 52.9052 43.2024 55.2719 41.98 54.964C40.7576 54.6561 38.8872 52.2067 37.844 51.3612C36.8008 50.5156 37.2282 49.4035 37.0214 48.1443C36.8146 46.8851 33.7265 45.7776 33.5197 45.0561C33.3129 44.3346 34.0344 41.3476 34.0344 41.3476C34.0344 41.3476 35.2062 39.7851 34.9535 40.4285C34.7748 40.9863 34.71 41.5744 34.7629 42.1577C34.8158 42.7411 34.9853 43.3079 35.2613 43.8245C35.4551 44.2322 35.7624 44.5752 36.1463 44.8125C36.5303 45.0497 36.9746 45.171 37.4258 45.1618L38.5471 39.6059L36.1804 37.6482L33.4231 38.7971C31.3644 41.2649 30.6613 41.9358 31.0611 43.8108Z" fill="#FEBB1B"/>
</g>
</g>
<path d="M48.409 42.2804C48.0368 39.9827 45.4036 35.3091 41.2263 35.4883C38.5149 35.6078 37.2466 36.1546 36.0701 36.821C35.1112 37.386 34.2173 38.0548 33.4047 38.8154C31.3643 41.2648 30.6474 41.9358 31.0427 43.8107C31.0102 44.5586 31.1274 45.3054 31.3873 46.0074C32.0123 47.6755 32.4397 48.7647 32.982 49.5597C32.8165 50.3363 32.3845 52.3859 32.3616 52.8547C32.3386 53.3234 33.7402 52.9971 34.4479 52.8179C35.7622 55.759 38.1703 57.7994 38.9193 58.0338C40.2245 58.4428 42.2878 56.2967 43.3816 54.6331C44.4753 52.9696 43.6481 51.0992 43.6527 50.3547C43.6573 49.6102 46.1113 47.9743 47.0212 47.455C47.9311 46.9357 48.7767 44.5736 48.409 42.2804Z" stroke="#263238" stroke-width="0.202946" stroke-miterlimit="10"/>
<path d="M33.5518 48.1718L34.0113 49.4861C34.0113 49.4861 34.9994 49.8123 36.2034 48.498" stroke="#263238" stroke-width="0.202946" stroke-miterlimit="10" stroke-linecap="round"/>
<path d="M36.9479 54.3113C36.9479 54.3113 38.0416 54.201 38.4828 52.6661" stroke="#263238" stroke-width="0.202946" stroke-miterlimit="10" stroke-linecap="round"/>
<path d="M32.7843 47.0735C32.7843 47.0735 33.1106 46.0854 35.0821 46.0854" stroke="#263238" stroke-width="0.202946" stroke-miterlimit="10" stroke-linecap="round"/>
<path d="M42.8898 33.6592C41.4573 33.4532 40.0126 33.3427 38.5655 33.3283C38.5655 33.3283 34.2365 30.833 30.0776 33.4938C25.9186 36.1546 27.9177 40.8144 27.9177 41.9771C27.9177 43.1397 26.585 43.1443 27.4168 44.6424C28.2486 46.1406 31.061 45.3134 31.061 45.3134C31.0907 44.7483 31.2401 44.196 31.4991 43.693C31.7582 43.1899 32.121 42.7476 32.5637 42.3952C34.0619 41.2326 35.2567 40.9798 35.753 41.3153C35.753 41.3153 35.4221 43.8107 35.9184 44.8079C35.9184 44.8079 37.582 45.6397 38.0829 45.6397C38.5838 45.6397 37.7566 46.3428 39.4156 46.9678C39.7179 47.0763 40.0412 47.1133 40.3601 47.0758C40.6791 47.0383 40.985 46.9274 41.2538 46.7518C41.4974 45.7408 42.0305 44.2197 43.0231 44.5735C44.4799 45.0928 45.808 48.6773 43.8365 49.8997C46.2078 50.3317 49.08 46.136 49.25 42.3125C49.42 38.4891 45.353 34.0912 42.8898 33.6592Z" fill="#263238"/>
<path d="M35.8266 39.6747C35.8266 39.6747 37.049 39.0176 38.5471 40.4238C40.0452 41.83 42.9588 43.7096 46.819 42.6756" stroke="white" stroke-width="0.101473" stroke-linecap="round" stroke-linejoin="round"/>
<path d="M35.6565 38.5489C35.6565 38.5489 36.4975 37.2346 37.9037 37.2346C39.3099 37.2346 42.5957 39.2061 45.2198 39.2061" stroke="white" stroke-width="0.101473" stroke-linecap="round" stroke-linejoin="round"/>
<path d="M34.7007 41.0809C34.7007 41.0809 33.106 39.1141 31.6079 40.7087C30.1098 42.3033 31.061 43.8107 31.061 43.8107" stroke="white" stroke-width="0.101473" stroke-linecap="round" stroke-linejoin="round"/>
<path d="M28.3267 42.3953C29.2405 41.5712 29.8086 40.4318 29.9168 39.206C30.1052 37.1427 32.9222 35.3596 34.7007 37.0507" stroke="white" stroke-width="0.101473" stroke-linecap="round" stroke-linejoin="round"/>
<path d="M31.231 34.8908C31.231 34.8908 34.0481 32.1703 36.3918 35.6399" stroke="white" stroke-width="0.101473" stroke-linecap="round" stroke-linejoin="round"/>
<path d="M54.158 168.652C54.158 168.652 55.8905 171.345 55.6975 173.077L55.509 174.81C55.509 174.81 49.1535 176.552 47.807 176.552C46.4605 176.552 39.3329 175.876 39.3329 175.876L39.025 174.654C39.0034 174.563 39.0136 174.468 39.0538 174.385C39.0939 174.301 39.1617 174.234 39.2456 174.194L45.6012 171.23L47.6048 169.038L54.158 168.652Z" fill="white" stroke="#263238" stroke-width="0.203749" stroke-miterlimit="10"/>
<path d="M48.7721 175.196C50.4954 175.329 53.7674 174.277 55.6653 173.606L55.532 174.81C55.532 174.81 49.1535 176.552 47.807 176.552C46.4605 176.552 39.3329 175.876 39.3329 175.876L39.1123 175.003C40.252 175.008 46.4927 175.021 48.7721 175.196Z" fill="#FEBB1B" stroke="#263238" stroke-width="0.203749" stroke-miterlimit="10"/>
<path d="M45.6104 171.23L36.3597 175.256C36.3597 175.256 35.5692 177.236 36.3597 177.632C37.1501 178.027 54.3832 177.632 54.3832 177.632C54.3832 177.632 55.5734 174.502 53.6939 172.402C51.8143 170.302 45.6104 171.23 45.6104 171.23Z" fill="white" stroke="#263238" stroke-width="0.203749" stroke-miterlimit="10"/>
<path d="M54.3832 177.632C54.3832 177.632 37.15 178.027 36.3596 177.632C35.9782 177.439 35.9644 176.882 36.0517 176.354H54.6865C54.6256 176.788 54.524 177.216 54.3832 177.632Z" fill="#FEBB1B" stroke="#263238" stroke-width="0.203749" stroke-miterlimit="10"/>
<path d="M41.2355 101.282C41.2355 101.282 38.8182 111.994 37.9037 118.694C36.9892 125.395 36.4516 138.818 36.6446 140.358C36.8376 141.897 46.4605 167.692 46.4605 167.692L47.421 169.989L54.158 168.643C54.158 168.643 51.079 158.827 49.9256 153.436C48.7721 148.046 46.2492 139.19 46.2492 137.651C46.2492 136.111 52.2233 106.709 52.6507 104.779C53.0781 102.849 55.0174 99.885 55.0174 99.885L42.1178 99.623L41.2355 101.282Z" fill="#FEBB1B" stroke="#263238" stroke-width="0.203749" stroke-miterlimit="10"/>
<path d="M41.2355 101.282C41.2355 101.282 39.8201 111.066 40.4037 117.867C40.9873 124.668 42.2419 139.149 42.2419 141.304C42.2419 143.459 45.7207 156.331 45.9183 160.375C46.2262 166.216 45.7942 169.107 45.7942 169.107L45.5874 171.225C45.5874 171.225 49.6452 171.804 50.5322 172.057C51.5566 172.321 52.6137 172.436 53.6709 172.397C53.6709 172.397 55.146 165.904 55.146 160.371C55.146 154.838 53.919 143.45 53.3078 138.836C52.6966 134.222 54.6221 116.424 55.7159 113.102C56.8096 109.779 59.1993 102.743 57.5908 99.1496C55.9824 95.5559 41.2355 101.282 41.2355 101.282Z" fill="#FEBB1B" stroke="#263238" stroke-width="0.203749" stroke-miterlimit="10"/>
<path d="M59.3785 97.3481L59.2314 101.723C59.2314 101.723 56.612 102.242 53.0826 102.854C50.1691 103.359 42.8531 102.72 40.3899 102.481C40.1654 102.461 39.9579 102.354 39.8124 102.182C39.667 102.009 39.5954 101.787 39.6133 101.562L39.8522 97.6101L59.3785 97.3481Z" fill="#263238"/>
<path d="M49.1397 53.7369C49.1397 53.7369 45.0038 58.2084 43.4459 60.9886C41.8881 63.7689 41.2723 68.0289 40.6886 71.3836C40.105 74.7384 41.6859 82.615 41.2401 86.2317L39.8293 97.6239C39.8293 97.6239 39.526 98.396 40.5416 99.2415C41.5572 100.087 46.5157 100.395 50.9963 100.62C52.6323 100.703 57.5173 99.6505 58.317 99.6C59.282 99.5403 59.3142 98.3133 59.3555 97.3482C59.5486 92.8124 60.3666 80.7217 60.9042 75.4553C62.0117 64.7156 55.9503 54.3481 49.1397 53.7369Z" fill="white" stroke="#263238" stroke-width="0.203749" stroke-miterlimit="10"/>
<g style="mix-blend-mode:multiply">
<path d="M60.3987 81.5627C60.5825 79.1777 60.7663 77.0132 60.9272 75.4553C60.9731 74.9957 61.0007 74.5362 61.0237 74.0766L50.0359 75.9148L40.5967 72.698C40.5977 74.6511 40.7082 76.6027 40.9276 78.5435L50.1875 81.1353L60.3987 81.5627Z" fill="#FEBB1B"/>
</g>
<g style="mix-blend-mode:multiply">
<path d="M48.7307 54.1874C48.1057 54.8813 46.8649 56.2921 45.6839 57.7903L52.6599 64.8811L54.9576 63.962L48.7307 54.1874Z" fill="#FEBB1B"/>
</g>
<path d="M49.1397 53.7369C49.1397 53.7369 45.0038 58.2084 43.4459 60.9886C42.984 61.8336 42.6098 62.7236 42.3292 63.6448L50.647 54.0356C50.1556 53.8868 49.6508 53.7867 49.1397 53.7369Z" fill="#263238"/>
<g style="mix-blend-mode:multiply">
<path d="M41.0103 69.5731L50.0358 72.5418L60.9961 71.2826C60.8243 68.5523 60.2177 65.8669 59.1992 63.3278L50.3621 66.8709L42.4624 63.291C41.8165 65.3443 41.331 67.4446 41.0103 69.5731Z" fill="#FEBB1B"/>
</g>
<g style="mix-blend-mode:multiply">
<path d="M56.5477 92.8124C51.97 93.581 47.2729 93.1972 42.8807 91.6957L40.6794 90.942L39.9947 96.4566L42.5038 97.1597C47.2738 98.4934 52.2593 98.8775 57.1772 98.2902L59.2039 98.0467C59.3093 97.8234 59.3687 97.5811 59.3785 97.3343C59.4336 96.1073 59.5301 94.3243 59.6542 92.2793L56.5477 92.8124Z" fill="#FEBB1B"/>
</g>
<g style="mix-blend-mode:multiply">
<path d="M57.7747 85.3034C53.1968 86.0751 48.4986 85.6896 44.1077 84.1821L41.3044 83.2217C41.3739 84.2229 41.3601 85.2282 41.263 86.2271L40.9368 88.8787L43.7308 89.66C48.499 90.995 53.4829 91.3807 58.3997 90.7951L59.7783 90.6296C59.8932 88.7914 60.0265 86.8337 60.1689 84.899L57.7747 85.3034Z" fill="#FEBB1B"/>
</g>
<path d="M14.6603 65.8699L23.5458 73.014L23.9288 72.5377L15.0433 65.3935L14.6603 65.8699Z" fill="#263238"/>
<path d="M53.4181 58.6954C53.4181 58.6954 56.6763 60.9151 56.7499 66.1585C56.782 68.4563 56.5431 70.6024 56.0146 74.3661C55.4861 78.1298 52.2049 90.386 49.6498 91.8749C47.0947 93.3639 43.1288 90.5514 43.1288 90.5514L23.9472 77.8173L19.3104 74.072L17.0126 69.7338L17.7341 68.3552L23.3912 72.6933L20.3443 69.8763L20.9418 69.118L22.0447 69.8855L25.2615 71.0895L25.9646 75.685L26.9573 76.3651L45.3071 83.0699C45.3071 83.0699 45.0773 73.1942 45.2473 71.3055C45.4174 69.4167 45.6517 64.6696 47.6738 61.2276" fill="white"/>
<mask id="mask4_8_3696" style="mask-type:luminance" maskUnits="userSpaceOnUse" x="17" y="58" width="40" height="35">
<path d="M53.4181 58.6954C53.4181 58.6954 56.6763 60.9151 56.7499 66.1585C56.782 68.4563 56.5431 70.6024 56.0146 74.3661C55.4861 78.1298 52.2049 90.386 49.6498 91.8749C47.0947 93.3639 43.1288 90.5514 43.1288 90.5514L23.9472 77.8173L19.3104 74.072L17.0126 69.7338L17.7341 68.3552L23.3912 72.6933L20.3443 69.8763L20.9418 69.118L22.0447 69.8855L25.2615 71.0895L25.9646 75.685L26.9573 76.3651L45.3071 83.0699C45.3071 83.0699 45.0773 73.1942 45.2473 71.3055C45.4174 69.4167 45.6517 64.6696 47.6738 61.2276" fill="white"/>
</mask>
<g mask="url(#mask4_8_3696)">
<g style="mix-blend-mode:multiply" opacity="0.5">
<path d="M45.1784 75.6069C45.1784 79.0168 45.2933 83.07 45.2933 83.07L26.9618 76.3927L25.9692 75.7126L25.2661 71.1171L22.0492 69.9131L20.9509 69.1319L20.3535 69.8901L23.3911 72.6934L17.7341 68.3552L17.0493 69.7109L19.3471 74.049L23.9839 77.8173L25.1512 78.594L50.4954 86.7602L45.1784 75.6069Z" fill="#FEBB1B"/>
</g>
</g>
<path d="M53.4181 58.6954C53.4181 58.6954 56.6763 60.9151 56.7499 66.1585C56.782 68.4563 56.5431 70.6024 56.0146 74.3661C55.4861 78.1298 52.2049 90.386 49.6498 91.8749C47.0947 93.3639 43.1288 90.5514 43.1288 90.5514L23.9472 77.8173L19.3104 74.072L17.0126 69.7338L17.7341 68.3552L23.3912 72.6933L20.3443 69.8763L20.9418 69.118L22.0447 69.8855L25.2615 71.0895L25.9646 75.685L26.9573 76.3651L45.3071 83.0699C45.3071 83.0699 45.0773 73.1942 45.2473 71.3055C45.4174 69.4167 45.6517 64.6696 47.6738 61.2276" stroke="#263238" stroke-width="0.203749" stroke-miterlimit="10"/>
<path d="M45.3071 83.0699L52.3106 88.125L54.1258 84.9081C54.1258 84.9081 55.3804 83.9201 55.5642 83.1756C55.748 82.4312 55.5136 81.2226 55.7021 80.4781C55.8905 79.7336 56.828 79.0351 56.9153 77.2337C57.0026 75.4322 56.9153 73.9295 56.9153 73.9295C56.9153 73.9295 58.4318 67.6934 58.2663 64.9821C58.1009 62.2707 55.4861 57.4776 53.3905 57.3719C51.295 57.2662 48.5699 57.5833 46.4559 60.7818C44.342 63.9802 44.774 73.3183 44.4431 73.9019C44.1122 74.4856 44.5718 77.3669 44.5718 77.3669C44.3881 77.5039 44.2357 77.6785 44.1248 77.8789C44.0139 78.0794 43.9469 78.3012 43.9284 78.5296C43.8916 79.2787 44.7004 81.1214 44.7004 81.1214L45.3071 83.0699Z" fill="white" stroke="#263238" stroke-width="0.203749" stroke-miterlimit="10"/>
<g style="mix-blend-mode:multiply">
<path d="M44.627 71.5031C44.6414 72.305 44.5814 73.1065 44.4477 73.8973C44.1536 74.4212 44.4891 76.7879 44.5626 77.2704C48.5018 78.4939 52.6671 78.8081 56.7453 78.1895C56.8329 77.8699 56.8853 77.5417 56.9015 77.2107C56.9934 75.4138 56.9015 73.9065 56.9015 73.9065C56.9015 73.9065 57.0348 73.3504 57.2186 72.5049C52.9951 72.7733 48.7549 72.436 44.627 71.5031Z" fill="#FEBB1B"/>
</g>
<g style="mix-blend-mode:multiply">
<path d="M46.171 61.292C45.5139 62.6109 45.1462 64.5916 44.9348 66.5998C49.1067 68.1919 53.6047 68.7394 58.0366 68.1944C58.2134 67.1316 58.2919 66.0548 58.271 64.9776C58.1914 64.1261 57.9902 63.2904 57.6736 62.496C53.8037 62.5863 49.9383 62.1817 46.171 61.292Z" fill="#FEBB1B"/>
</g>
<path d="M44.7004 81.1721L45.2933 83.0701L52.2968 88.1251L54.112 84.9083C54.112 84.9083 55.3666 83.9202 55.5504 83.1758C55.5832 83.0463 55.6032 82.9139 55.6101 82.7805C51.9195 82.7168 48.2525 82.1762 44.7004 81.1721Z" fill="#263238"/>
<path d="M49.7693 171.997C49.7693 171.997 49.9256 168.018 50.6884 162.2C51.4513 156.382 49.6177 148.119 49.3098 146.741C49.0019 145.362 49.466 142.301 49.1581 141.226C48.8502 140.151 47.3613 135.564 48.239 130.243C49.1168 124.921 49.8291 110.854 49.8291 110.854C49.8291 110.854 47.6186 109.058 46.9707 106.718C46.3227 104.379 46.819 103.644 46.819 103.644" stroke="#263238" stroke-width="0.203749" stroke-miterlimit="10"/>
<path d="M50.7941 103.86L49.9439 108.566" stroke="#263238" stroke-width="0.203749" stroke-miterlimit="10"/>
</svg>
